ply
format ascii 1.0
comment https://github.com/mikedh/trimesh
element vertex 467
property float x
property float y
property float z
element face 930
property list uchar int vertex_indices
end_header
-0.77022499 -0.59748298 0.82609397
0.18506999 1.00000000 -0.56638098
0.52809203 -0.61894399 -0.95940000
0.61054999 -0.74624002 0.41984701
-0.36111000 -0.24920100 -0.98189998
-0.24761499 -0.00125408 0.98638499
0.77007902 0.19732200 -0.45919600
0.24157000 -1.00000000 0.15178600
-0.32136101 0.49873301 -0.69082499
0.20141800 0.63877797 -0.96047199
-0.59792900 -0.77014202 0.87729001
0.69438702 -0.82524300 0.22318700
0.44423401 0.47336000 0.12865800
0.04040680 -0.71327001 -0.96544701
-0.46927199 0.03996480 -0.52034199
-0.19852500 0.68111998 -0.30658001
0.22126600 -0.49386400 -0.98923302
0.01775440 0.87558699 -0.79053402
0.70120603 -0.07095270 -0.95939499
-0.70161200 -0.67544103 0.91664398
0.43705001 -0.79513198 0.54448998
0.72145200 0.24339101 -0.21234199
0.55781901 -0.96719199 0.09078550
-0.12065200 -0.09008620 0.93576300
0.28589499 0.66729498 0.04331740
-0.02264890 -0.87153000 -0.31255201
-0.68333900 -0.65656102 0.62699002
-0.35629201 0.34159601 -0.74940002
-0.75980997 -0.58794600 0.73560500
-0.34217501 0.06885710 0.92409998
-0.35050699 0.46140400 -0.51714998
-0.20629700 0.30595800 -0.98439801
0.01008810 -0.67413098 -0.98933601
0.27850300 0.91077501 -0.79910803
0.05526120 0.96517700 -0.61761397
0.62319499 -0.50748801 -0.94359899
0.72024101 -0.10605900 -0.92138201
0.57089198 0.32040900 -0.97363597
0.54502797 -0.53723001 -0.97891998
-0.22483000 -0.02464770 0.98946500
0.28483000 -0.96282601 0.48693499
0.53846002 -0.88727999 0.41481400
0.74884099 0.13138200 -0.25805199
0.68325597 -0.76931900 0.30471599
0.59060597 0.45260200 -0.08441870
0.25997901 -0.92981499 -0.27710301
0.47121599 -0.58118600 0.53520697
0.36624500 0.60839301 0.08384180
-0.60574698 -0.78570402 0.86465502
-0.04741460 -0.67229903 -0.96664101
-0.41908601 0.29595500 -0.47657299
-0.36807001 -0.17195401 -0.96529698
-0.73086298 -0.63214600 0.69113398
-0.35621399 0.07449570 0.89826697
0.08652480 0.74958599 -0.07711990
-0.32799101 0.06718650 0.92934197
-0.73304200 -0.63859499 0.90401000
-0.28652799 0.56565499 -0.45393801
0.04814200 0.70814300 -0.91940898
-0.25858200 0.36545500 -0.95828098
0.08211320 -0.69572198 -0.98294300
-0.29763001 -0.11276000 -0.98946500
-0.02971070 0.88511002 -0.68936700
0.13787800 0.96238899 -0.74211299
0.61865300 -0.92113602 0.09611080
0.73753202 0.26765800 -0.62705600
0.70924598 -0.71043301 0.14238900
0.70654100 -0.13802800 -0.94881600
0.16318101 0.59379500 -0.97379798
0.20940800 0.27231500 -0.98431402
0.53964001 0.45424101 -0.95528299
0.58421600 -0.55591297 -0.97092903
0.09491270 -0.65882200 -0.98940599
0.64536297 -0.05022900 -0.97343898
-0.62681001 -0.73887599 0.89706600
-0.17271601 -0.04516150 0.96962601
0.30164200 -0.92852598 0.52994502
0.52749699 -0.98395199 0.15454300
0.54335803 -0.81577098 0.46604100
0.74939400 0.26900399 -0.30878901
0.62189001 -0.71818697 0.39696899
0.64655298 -0.85275501 0.31879199
0.36864600 0.93080300 -0.62711298
0.08712520 -0.71370298 -0.96778798
0.48700300 -0.63720101 -0.95306897
0.08946310 -0.91956002 -0.29465401
0.51069599 -0.70140499 0.51780099
0.32070801 0.62889999 0.08532450
-0.20236599 -0.01972760 0.97612101
0.48085299 0.58198601 -0.01251260
0.24814799 0.98570502 -0.53490603
0.23866700 -0.96272099 0.48336399
-0.72594798 -0.67292702 0.90049100
-0.03149310 -0.67417598 -0.98298800
-0.62766701 -0.77495700 0.86115700
-0.40879500 0.23569500 -0.63463902
-0.41642001 0.31525099 -0.44825199
-0.77001399 -0.57898098 0.79128098
-0.37614101 -0.22463299 -0.94777101
-0.76836699 -0.59803802 0.78624803
-0.35830700 -0.28185600 -0.97673798
-0.76355600 -0.58889699 0.85009903
-0.08630500 0.69099700 -0.08624800
-0.32806101 0.05184750 0.94528598
0.08589620 0.72093397 -0.02751420
-0.33535701 0.48863599 -0.55130601
0.17986800 0.83237898 -0.87292701
-0.32807100 0.46680301 -0.72162002
-0.28224400 0.30841199 -0.94190103
-0.25059399 0.25036600 -0.98245603
0.03862850 0.81246603 -0.85383201
0.04074500 -0.70295799 -0.97985500
-0.33882999 -0.25696999 -0.98912299
0.02766980 0.92553997 -0.72425598
-0.04281190 0.84562898 -0.73857898
-0.02461930 0.89727402 -0.64955902
0.13693500 0.99863201 -0.62426102
0.56933701 -0.59948403 -0.93886602
0.61098897 -0.54823601 -0.93988401
0.70729297 -0.05223170 -0.94368500
0.74054998 0.23584200 -0.63006598
0.77017301 0.15061601 -0.45275301
0.70232302 -0.79017502 0.23844200
0.71373600 -0.08681060 -0.94236302
0.13076800 0.64524198 -0.96009099
-0.26802999 0.02689170 -0.98889297
0.48216900 0.42563099 -0.97373402
0.61422598 -0.51121402 -0.95893103
0.49564901 -0.60120702 -0.97882301
0.69291502 -0.14525200 -0.96122301
0.06689220 -0.67994100 -0.98830497
0.05667700 -0.44048700 -0.98939699
-0.29341799 -0.32439300 -0.98940802
0.68777698 -0.07199170 -0.96623898
-0.64017397 -0.71333599 0.90505397
-0.63352001 -0.76099700 0.88709402
0.38166699 -0.81838500 0.55817902
-0.18180600 -0.06139960 0.97138000
0.33809400 -0.94694197 0.49349201
0.26460499 -0.95005703 0.51793700
0.28147799 -0.99955201 0.20633399
0.52518898 -0.98375797 0.11697300
0.56925303 -0.97194999 0.13744999
0.40343800 -0.88597202 0.51758200
0.77022600 0.16973500 -0.42568201
0.70315802 0.36949599 -0.24981201
0.69522202 -0.76897198 0.26836801
0.70745999 0.41641101 -0.43608201
0.66407502 -0.76830000 0.33983201
0.70449501 0.24360000 -0.18075401
0.47108001 0.33689699 0.15168200
0.57822299 -0.69488603 0.45231000
0.59741497 -0.82400298 0.40764001
0.40414801 0.82916301 -0.76705700
0.16589800 -0.93191099 -0.27852100
0.30012700 -0.92986298 -0.24282899
0.46206900 -0.63137197 -0.97009701
0.06647040 -0.90846902 -0.31130600
0.15602800 -0.98225403 0.12407400
0.49201599 -0.65403402 0.53101999
0.47735500 -0.76673001 0.53075898
0.56453300 -0.76136500 0.47064599
0.37246799 0.69299197 -0.04266210
0.33062801 0.59306401 0.11717200
0.26343501 0.64206702 0.08017670
0.42845699 0.50317103 0.12593199
0.49605599 0.55286300 -0.01043680
0.26417699 0.98796099 -0.64804101
0.17061400 0.72911000 -0.03584260
0.16407301 0.97869903 -0.51092702
0.25262800 -0.99725300 0.21167000
-0.75370902 -0.62537098 0.88009799
-0.66801399 -0.73886198 0.88606000
-0.41924801 0.21672300 -0.59908199
-0.44345799 0.04634460 -0.63311601
-0.33439699 0.46633300 -0.69863498
-0.46089599 0.16394000 -0.37523201
-0.47120899 0.01353670 -0.52628797
-0.40832001 0.32930601 -0.41953701
-0.36950499 0.38989899 -0.29382500
-0.29149401 0.53372401 -0.31525701
-0.37066600 -0.24031000 -0.96899700
-0.74763799 -0.60882598 0.70533502
-0.75858903 -0.62325698 0.81814700
-0.32285801 -0.33924499 -0.96730399
-0.10377000 0.74073100 -0.24518500
0.04626140 0.75559002 -0.10062000
-0.30177200 0.02345630 0.96504200
-0.33067799 0.49645701 -0.50840801
0.18786800 0.92707503 -0.79978198
0.27751100 0.82559198 -0.86324900
-0.26990300 0.37970799 -0.93245798
-0.29135200 0.23260500 -0.95616603
-0.36622700 0.22912700 -0.78182900
-0.22068700 0.38850999 -0.97320497
-0.35615700 -0.18891899 -0.98160398
0.06979080 0.77482402 -0.89283502
-0.33196199 -0.29530001 -0.98762602
0.05311430 0.92075801 -0.76794899
-0.30970100 0.50391299 -0.71949297
0.00262743 0.89307702 -0.74929100
-0.20710900 0.67153400 -0.33996099
0.03454790 0.94646502 -0.59909600
-0.00590134 0.91697800 -0.65694398
0.07062200 0.97122300 -0.65717798
0.58358997 -0.95681202 0.10854700
0.55860299 -0.60093498 -0.95739698
0.63344902 -0.90609902 0.11109500
0.58426797 0.39966199 -0.94436097
0.74409002 0.25435501 -0.59770203
0.76977700 0.16594400 -0.47576201
0.69648600 -0.80952799 0.26837900
0.16488400 0.66530001 -0.95546901
0.19822299 -0.18844600 -0.98739898
-0.26829499 -0.07091930 -0.98930001
-0.23228300 0.27899700 -0.98420900
-0.33571199 -0.18106000 -0.98946100
0.54970598 0.39021200 -0.97182298
0.20510399 0.57891601 -0.97243398
0.53298903 0.43519500 -0.96474999
0.59714299 -0.55670202 -0.95868897
0.53180897 -0.60711801 -0.97042298
0.04943780 -0.39874300 -0.98937100
-0.05574190 -0.61706001 -0.98935002
0.67076802 -0.16586500 -0.96768302
-0.65668797 -0.73256499 0.90310103
0.35273299 -0.87706298 0.54452097
-0.13135201 -0.10571900 0.94089001
0.35105199 -0.95248002 0.46868300
0.30241400 -0.99938101 0.13608199
0.63934898 -0.88928598 0.27181399
0.48703501 -0.83512503 0.49829599
0.33924201 -0.92434400 0.51866800
0.42105299 -0.89223200 0.50078100
0.75446898 0.25037599 -0.32694101
0.61123902 0.46300200 -0.12343300
0.73741800 0.29794899 -0.28638199
0.73391998 0.16816901 -0.21929701
0.74015301 0.31798699 -0.47551599
0.47940201 0.45641300 0.08320490
0.59320700 -0.68999702 0.42825201
0.53214300 -0.85852700 0.44492799
0.59271598 -0.86725903 0.37509400
0.61812103 -0.77458102 0.40911299
0.33435601 0.83249402 -0.83357298
0.30440900 0.95416099 -0.72527897
0.62984699 0.48183900 -0.69986397
0.23687100 -0.99571103 0.11739100
0.07681710 -0.91751403 -0.27434799
0.02053080 -0.89341700 -0.28834999
0.19516100 -0.99250299 0.14506200
0.51919502 -0.66673601 0.50956202
0.52457303 -0.78618002 0.49535099
0.58062398 -0.79713500 0.44242200
0.55602300 -0.71130401 0.48103499
0.36024100 0.63863200 0.05327880
0.30576599 0.70436299 -0.01804050
0.51247102 0.66962302 -0.21533400
0.38654301 0.50712901 0.15518001
0.41635501 0.59095502 0.06254070
0.46386501 0.58140099 0.01384030
0.30594400 0.97518998 -0.59533900
0.23152500 0.99957198 -0.60551399
0.18762600 0.99133301 -0.67859602
0.11157700 0.73509300 -0.04748300
0.14790501 0.70890498 -0.00413513
0.20853700 0.99069601 -0.53312600
0.07643380 0.96165800 -0.53902501
-0.74605101 -0.60129499 0.88079798
-0.42805400 0.15232800 -0.62936598
-0.45430201 0.01790130 -0.60206199
-0.34545001 0.46490201 -0.56418800
-0.36697701 0.33993500 -0.71011198
-0.47201401 0.05198320 -0.47974300
-0.22026300 0.64150298 -0.28262499
-0.30717599 0.52064002 -0.37766799
-0.76066202 -0.62187803 0.85027701
-0.75119698 -0.61953998 0.76152200
-0.72546101 -0.67295802 0.87799901
-0.31359801 -0.33766201 -0.98078102
-0.17744900 0.69576901 -0.28373900
-0.12172800 0.66637599 -0.08956650
-0.01830510 0.73915499 -0.11897800
0.04803750 0.73715001 -0.06573520
0.25108299 0.86609501 -0.84502399
0.28140599 0.72340900 -0.91094202
-0.25491101 0.43937200 -0.89752102
-0.40639001 0.09616230 -0.72494799
-0.23398000 0.30582201 -0.98291200
-0.18060300 0.39485899 -0.97889102
0.06851380 0.67776799 -0.93728799
-0.24252801 0.40930000 -0.94748598
-0.27531701 0.24228400 -0.97030300
0.07652990 0.87249601 -0.82895100
0.04278840 0.75145501 -0.89356297
0.09953730 0.93881100 -0.76864600
-0.01885960 0.89236701 -0.71017897
-0.30972600 0.48503399 -0.74071097
-0.01146690 0.86025798 -0.77290899
-0.17776000 0.70158499 -0.30561799
0.09231170 0.98562199 -0.61562502
0.10605700 0.98624802 -0.65209901
0.05144260 0.96141797 -0.64378899
0.08150650 0.95188498 -0.73445302
0.60559100 -0.94389099 0.13891201
0.53805298 -0.61852098 -0.94385302
0.68458200 0.32966101 -0.74802899
0.56371897 0.45199600 -0.93335700
0.57764798 0.37930101 -0.96011001
0.66482598 -0.79740298 0.33586401
0.11439900 0.75590301 -0.91058600
0.22055399 0.82025599 -0.87764901
0.55733901 0.43441200 -0.95512497
0.63085997 -0.16057600 -0.97370201
-0.69066602 -0.70999199 0.89828801
0.39060500 -0.84882802 0.54420799
0.42746499 -0.73477399 0.56080002
0.46700799 -0.71850801 0.54253697
0.51711702 -0.93114698 0.35026300
0.25247100 -0.93664300 -0.25396699
0.32362100 -0.99947101 0.16266599
0.68155402 -0.84687501 0.25795799
0.50169498 -0.89488000 0.43681499
0.45199201 -0.86897498 0.50025898
0.76895201 0.19560900 -0.43312901
0.62083501 0.39402401 -0.10702300
0.59140003 0.49989301 -0.11881800
0.71925902 0.36261499 -0.30883399
0.73811698 0.31670201 -0.33042100
0.73561102 0.29244599 -0.60328102
0.56321800 -0.86156601 0.41173401
0.50862801 -0.87062901 0.45708200
0.62541902 -0.83631200 0.36368099
0.60271901 -0.88682097 0.33667800
0.58477998 -0.74611998 0.45115101
0.29983500 0.82962197 -0.85334700
0.37395099 0.90521997 -0.71122497
0.35573000 0.86042500 -0.79374099
0.25189701 0.93971002 -0.77709699
0.17703900 -0.93693203 -0.25410801
-0.01684020 -0.88089103 -0.26470500
0.20919800 -0.99429202 0.17306601
0.51731598 -0.73887497 0.51049203
0.47173801 -0.80020303 0.52458799
0.62687099 -0.80900699 0.38391700
0.33328000 0.71555603 -0.05179660
0.24322000 0.69803500 0.00601530
0.32246199 0.65479600 0.05110680
0.44346100 0.65830398 -0.08322410
0.64297199 0.53521699 -0.39624000
0.35437199 0.55844998 0.13449501
0.39063701 0.56084102 0.10667800
0.41510201 0.61118102 0.03853500
0.33343700 0.95617598 -0.59008998
0.31054801 0.96599102 -0.67310500
0.21627299 0.99968702 -0.56923401
0.15840700 0.99968702 -0.64384902
0.27131900 0.98944402 -0.61130399
0.25557300 0.96931201 -0.72932100
0.19483800 0.99973899 -0.63996297
0.16388001 0.98791897 -0.53006601
0.21645600 0.97996199 -0.51331902
-0.09774600 0.69806600 -0.11984400
0.07168600 0.97017902 -0.56939501
-0.34226599 0.04742010 0.93684900
-0.36645600 0.32302001 -0.72808301
-0.45659101 0.03962020 -0.57815099
-0.47049201 -0.01758380 -0.53207302
-0.22119500 0.64631701 -0.31442600
-0.29960799 0.54442698 -0.44615701
-0.06736570 -0.63629198 -0.97817200
0.12542500 0.98217601 -0.53947502
0.19100600 0.87439603 -0.84414798
0.31020400 0.71063799 -0.90782797
0.20811500 0.66164601 -0.95149398
0.11894000 0.58259100 -0.97257900
-0.00139374 0.82883900 -0.81482798
-0.25939900 0.29737499 -0.97047102
0.09670760 0.84065902 -0.85799599
0.05904420 0.82873499 -0.85375398
0.06460860 0.89633399 -0.80403399
0.15709201 0.95094502 -0.76662499
0.01142670 0.92388999 -0.69235498
0.10621300 0.96578199 -0.71722603
0.59019899 -0.95036697 0.17790100
0.69641298 0.28419700 -0.74379301
0.42673400 0.79834902 -0.76466298
0.57521498 0.45718601 -0.90276402
0.66361499 -0.81896102 0.32450300
0.15439500 0.76824498 -0.90725797
0.07679200 0.73545802 -0.91522098
0.25891399 0.79121703 -0.88504303
0.56296700 -0.97003400 0.17669000
0.48890400 -0.91891402 0.41238099
0.65262002 -0.86598200 0.29109001
0.65835297 -0.87747800 0.23195800
0.68232697 -0.84791398 0.22227800
0.43066001 -0.84391898 0.52848297
0.55349600 0.61230803 -0.19296300
0.61101002 0.52527601 -0.18655699
0.71212798 0.37053001 -0.27959901
0.70779401 0.41636899 -0.40234900
0.74638700 0.28680801 -0.33478501
0.73663402 0.31687999 -0.30214900
0.68604398 0.36550701 -0.70456702
0.28425601 0.88071299 -0.82318902
0.32173201 0.90412402 -0.77563500
0.35623100 0.89904898 -0.74808502
0.40532801 0.79202098 -0.80473298
0.35852799 0.81340599 -0.82957900
0.29148200 0.94332200 -0.75323600
0.24073499 0.89641798 -0.82317698
0.36826000 0.70915598 -0.07177900
0.34878600 0.68030500 -0.00085545
0.24484900 0.72305399 -0.03705180
0.49602500 0.67135602 -0.18734300
0.55142897 0.64797699 -0.26166701
0.39704800 0.89205301 -0.66322601
0.38076901 0.66009998 0.00253808
0.44382700 0.60919702 0.00249636
0.33537900 0.95624900 -0.63447201
0.29990801 0.96937400 -0.55665600
0.34978801 0.93076098 -0.69779998
0.15143500 0.99967599 -0.58571601
0.15736900 0.98964202 -0.68110597
0.26956400 0.98760599 -0.56917399
0.29602399 0.97802001 -0.64475298
0.24203999 0.98935002 -0.66567898
0.28243899 0.97163999 -0.70405900
0.18781400 0.96962500 -0.73684698
-0.13587999 0.73010200 -0.29020599
0.16159301 0.87014699 -0.84701002
0.23642200 0.70997000 -0.92672199
0.04271120 0.85742801 -0.82471299
0.13077600 0.81165200 -0.88245499
0.13229001 0.92112303 -0.79790998
0.21395500 0.95380598 -0.76376498
0.41158301 0.83494699 -0.74489802
0.68039501 -0.83529598 0.27944699
0.11129300 0.70411199 -0.93544298
0.18816400 0.79926801 -0.89141703
0.54416198 -0.92363101 0.33499700
0.52473003 -0.91889799 0.37593901
0.59738302 0.51819700 -0.14984600
0.62792498 0.53240800 -0.26583800
0.69547302 0.45032501 -0.40960801
0.71740103 0.33338800 -0.60776401
0.31653100 0.88488001 -0.80013800
0.42780900 0.70070797 -0.14444999
0.52185798 0.64015698 -0.17453000
0.39286101 0.89911199 -0.63767499
0.35773501 0.93200302 -0.58340901
0.61874700 0.53446501 -0.22701500
0.37137201 0.92113400 -0.67410201
0.46380201 0.61979502 -0.04640240
0.32967800 0.94547302 -0.55298001
0.11113900 0.98667598 -0.57791197
0.18504700 0.70436299 -0.93607098
0.13589799 0.89168799 -0.82503402
0.18733300 0.94315499 -0.77939898
0.39287099 0.89003801 -0.68846297
0.42397699 0.82208300 -0.73148900
0.56370902 -0.89032102 0.37971899
0.53818899 0.60032099 -0.14212599
0.66130799 0.50415301 -0.37349099
0.68697298 0.46173799 -0.43071401
0.54255402 0.63445503 -0.20704700
3 36 11 35
3 39 5 19
3 46 12 23
3 49 13 25
3 52 49 26
3 56 19 5
3 66 11 36
3 67 36 35
3 69 37 16
3 69 31 68
3 72 16 38
3 73 38 16
3 73 16 37
3 75 23 12
3 76 10 48
3 80 43 21
3 84 2 22
3 84 45 83
3 87 55 5
3 88 47 5
3 88 5 39
3 88 39 75
3 92 19 56
3 93 13 49
3 94 26 49
3 94 52 26
3 94 49 25
3 94 25 48
3 97 96 50
3 99 97 28
3 99 0 97
3 101 29 53
3 101 97 0
3 101 53 97
3 102 53 29
3 103 55 29
3 103 5 55
3 104 29 55
3 105 57 8
3 105 8 30
3 111 83 13
3 111 60 83
3 111 93 32
3 111 13 93
3 115 62 8
3 115 8 57
3 118 35 11
3 118 64 117
3 120 6 36
3 120 36 65
3 121 66 36
3 122 11 66
3 122 66 121
3 123 67 18
3 123 36 67
3 123 18 119
3 123 119 65
3 123 65 36
3 125 31 69
3 126 69 68
3 126 37 69
3 127 67 35
3 127 35 118
3 128 38 71
3 128 72 38
3 129 18 67
3 129 127 71
3 129 67 127
3 130 32 72
3 130 128 60
3 130 72 128
3 130 111 32
3 130 60 111
3 131 72 61
3 131 16 72
3 133 73 37
3 133 37 18
3 133 18 129
3 134 74 39
3 134 39 19
3 135 48 10
3 135 10 74
3 135 94 48
3 136 74 10
3 137 75 39
3 137 39 74
3 137 74 136
3 139 76 48
3 139 91 40
3 139 48 91
3 139 138 76
3 139 40 138
3 140 77 40
3 140 40 91
3 141 45 22
3 142 141 22
3 142 77 141
3 144 121 6
3 144 122 121
3 144 42 122
3 146 42 79
3 146 122 42
3 148 80 3
3 148 43 80
3 149 80 21
3 150 80 44
3 151 3 80
3 151 150 12
3 151 12 46
3 154 83 45
3 154 13 83
3 154 85 13
3 155 84 22
3 155 22 45
3 155 45 84
3 156 84 83
3 156 83 60
3 156 2 84
3 156 60 128
3 157 25 13
3 157 13 85
3 159 46 23
3 159 23 86
3 163 87 5
3 163 5 47
3 163 47 87
3 164 87 24
3 164 24 55
3 164 55 87
3 165 88 75
3 165 75 12
3 170 91 48
3 170 140 91
3 170 7 140
3 171 92 56
3 171 101 0
3 172 52 94
3 172 94 135
3 173 14 50
3 173 50 95
3 175 8 107
3 175 50 96
3 175 95 50
3 175 107 27
3 176 97 50
3 177 97 14
3 177 28 97
3 178 97 30
3 178 30 96
3 178 96 97
3 179 30 97
3 180 97 53
3 181 98 51
3 181 51 4
3 181 4 100
3 181 28 98
3 182 99 28
3 182 100 52
3 182 181 100
3 182 28 181
3 184 49 52
3 184 52 100
3 186 54 169
3 187 103 56
3 187 56 5
3 187 5 103
3 188 105 30
3 188 57 105
3 191 27 107
3 191 108 27
3 191 59 108
3 192 108 59
3 193 27 108
3 193 192 51
3 193 108 192
3 195 4 51
3 195 51 192
3 197 100 4
3 197 4 112
3 197 112 132
3 199 107 8
3 200 198 17
3 200 113 198
3 201 115 57
3 201 57 15
3 201 15 115
3 203 62 115
3 203 202 34
3 203 115 15
3 205 117 64
3 205 142 22
3 206 117 205
3 206 205 22
3 207 118 11
3 207 64 118
3 208 119 18
3 209 120 65
3 209 6 120
3 210 121 36
3 210 36 6
3 210 6 121
3 211 11 122
3 211 146 43
3 211 122 146
3 212 9 68
3 212 68 124
3 213 125 69
3 213 69 16
3 213 16 125
3 214 125 16
3 214 16 61
3 214 61 125
3 215 31 125
3 216 125 61
3 216 195 109
3 216 215 125
3 216 132 112
3 216 112 4
3 216 4 195
3 216 61 72
3 216 72 132
3 217 37 126
3 218 126 68
3 218 68 9
3 218 9 126
3 219 126 9
3 219 217 126
3 220 127 118
3 220 71 127
3 220 206 71
3 220 118 117
3 220 117 206
3 221 128 71
3 221 206 2
3 221 71 206
3 221 156 128
3 221 2 156
3 222 131 61
3 222 61 16
3 222 16 131
3 223 132 72
3 223 72 32
3 223 197 132
3 223 32 93
3 223 93 197
3 224 133 129
3 224 129 71
3 224 71 38
3 224 73 133
3 225 134 19
3 225 74 134
3 225 135 74
3 225 172 135
3 226 10 76
3 227 137 136
3 227 136 20
3 227 75 137
3 227 23 75
3 228 138 40
3 228 40 77
3 232 76 138
3 232 226 76
3 232 143 226
3 233 232 138
3 233 143 232
3 234 79 42
3 234 42 144
3 235 21 145
3 235 149 21
3 235 12 44
3 236 145 21
3 236 21 79
3 237 146 79
3 237 79 21
3 237 21 43
3 237 43 146
3 239 150 44
3 239 44 12
3 239 12 150
3 240 151 80
3 240 80 150
3 240 150 151
3 241 152 78
3 243 148 3
3 247 229 7
3 248 157 85
3 248 158 48
3 248 85 158
3 249 25 157
3 249 248 48
3 249 157 248
3 250 48 158
3 250 247 7
3 250 158 85
3 250 85 247
3 251 151 46
3 251 46 159
3 251 159 86
3 252 231 78
3 253 78 152
3 253 252 78
3 253 161 252
3 253 243 161
3 254 151 251
3 254 251 86
3 255 87 47
3 258 88 165
3 259 255 47
3 259 258 165
3 260 165 12
3 260 166 89
3 260 12 166
3 260 259 165
3 264 54 104
3 264 169 54
3 265 104 55
3 265 264 104
3 265 168 264
3 266 264 168
3 266 169 264
3 268 29 101
3 268 101 171
3 268 171 56
3 269 173 95
3 269 14 173
3 269 174 14
3 270 174 51
3 270 51 98
3 270 177 14
3 271 175 96
3 271 96 30
3 271 30 8
3 271 8 175
3 272 175 27
3 272 95 175
3 273 97 176
3 273 176 50
3 273 50 14
3 273 14 97
3 274 180 53
3 274 53 15
3 275 30 179
3 275 179 97
3 275 97 180
3 276 0 99
3 276 99 183
3 276 171 0
3 276 92 171
3 277 182 52
3 277 52 183
3 277 183 99
3 277 99 182
3 278 172 92
3 278 183 52
3 278 52 172
3 278 276 183
3 278 92 276
3 279 184 100
3 279 197 93
3 279 100 197
3 279 49 184
3 280 15 53
3 281 280 53
3 282 102 29
3 282 29 186
3 282 267 102
3 283 104 54
3 283 54 186
3 283 186 29
3 283 29 104
3 285 70 219
3 286 199 114
3 287 193 51
3 287 51 174
3 287 269 193
3 287 174 269
3 288 59 194
3 288 216 109
3 288 215 216
3 288 31 215
3 289 194 124
3 289 288 194
3 289 68 31
3 289 31 288
3 290 194 58
3 290 124 194
3 291 194 59
3 291 110 194
3 291 59 191
3 291 191 286
3 292 195 192
3 292 192 59
3 292 109 195
3 294 196 58
3 294 58 194
3 294 194 110
3 294 110 196
3 296 199 8
3 296 8 62
3 296 114 199
3 296 200 114
3 296 113 200
3 296 62 203
3 297 191 107
3 297 107 199
3 297 286 191
3 297 199 286
3 298 200 17
3 298 114 200
3 298 286 114
3 298 291 286
3 299 203 15
3 299 202 203
3 299 15 280
3 300 204 34
3 301 300 116
3 301 204 300
3 302 203 34
3 302 34 204
3 303 198 113
3 303 113 204
3 303 295 198
3 303 204 301
3 303 63 295
3 304 205 64
3 304 142 205
3 304 64 207
3 305 206 22
3 305 22 2
3 305 2 206
3 306 119 208
3 308 208 18
3 308 18 37
3 308 37 217
3 309 211 43
3 309 43 148
3 309 148 243
3 311 284 190
3 311 106 284
3 312 219 70
3 312 217 219
3 312 308 217
3 312 208 308
3 312 307 208
3 313 224 38
3 313 38 73
3 313 73 224
3 314 225 19
3 314 19 92
3 314 92 172
3 314 172 225
3 315 136 10
3 315 10 226
3 315 20 136
3 315 226 143
3 316 227 20
3 316 20 160
3 316 160 227
3 317 227 160
3 317 86 23
3 317 23 227
3 319 45 141
3 319 141 229
3 319 154 45
3 320 140 7
3 320 7 229
3 320 77 140
3 320 229 141
3 320 141 77
3 321 11 211
3 322 233 138
3 323 143 233
3 324 234 144
3 324 144 6
3 324 6 234
3 325 80 149
3 325 149 235
3 325 235 44
3 325 44 80
3 326 89 166
3 326 166 12
3 326 12 235
3 329 238 6
3 329 6 209
3 329 209 65
3 329 147 238
3 330 241 41
3 330 152 241
3 330 242 152
3 330 41 242
3 331 241 78
3 331 78 231
3 331 231 323
3 331 41 241
3 331 322 41
3 331 323 233
3 331 233 322
3 332 242 81
3 332 152 242
3 333 81 242
3 333 242 41
3 334 243 3
3 334 161 243
3 334 254 161
3 334 3 151
3 334 151 254
3 335 244 70
3 335 70 190
3 335 190 284
3 339 247 85
3 339 85 154
3 339 229 247
3 339 319 229
3 339 154 319
3 340 249 48
3 340 48 25
3 340 25 249
3 341 170 48
3 341 48 250
3 341 250 7
3 341 7 170
3 342 252 161
3 342 254 86
3 342 161 254
3 342 160 252
3 342 317 160
3 342 86 317
3 343 252 160
3 343 160 20
3 343 231 252
3 344 253 152
3 344 243 253
3 344 309 243
3 344 152 332
3 345 90 256
3 346 24 256
3 346 168 265
3 346 265 55
3 346 55 24
3 347 256 24
3 347 24 87
3 347 87 255
3 350 258 47
3 350 47 88
3 350 88 258
3 351 259 47
3 351 47 258
3 351 258 259
3 352 255 259
3 352 259 260
3 355 262 1
3 355 266 90
3 355 1 266
3 356 301 116
3 357 167 262
3 359 263 356
3 359 356 1
3 359 1 262
3 360 266 1
3 360 169 266
3 360 186 169
3 361 256 90
3 361 90 266
3 361 266 168
3 362 185 280
3 362 102 267
3 362 280 281
3 362 281 53
3 362 53 102
3 363 34 202
3 363 300 34
3 363 185 362
3 363 299 280
3 363 202 299
3 363 362 267
3 364 103 29
3 364 29 268
3 364 268 56
3 364 56 103
3 365 27 193
3 365 193 269
3 365 272 27
3 365 269 95
3 365 95 272
3 366 270 14
3 366 14 174
3 366 174 270
3 367 270 98
3 367 98 28
3 367 28 177
3 367 177 270
3 368 274 15
3 368 180 274
3 368 275 180
3 368 15 275
3 369 188 30
3 369 30 275
3 369 57 188
3 369 275 15
3 369 15 57
3 370 279 93
3 370 93 49
3 370 49 279
3 371 282 186
3 371 267 282
3 371 186 360
3 371 363 267
3 372 284 106
3 373 285 190
3 373 190 70
3 373 70 285
3 374 219 9
3 374 9 212
3 375 289 124
3 375 124 68
3 375 68 289
3 376 110 291
3 376 298 17
3 376 291 298
3 377 288 109
3 377 109 292
3 377 292 59
3 377 59 288
3 379 196 110
3 379 378 196
3 379 293 378
3 380 17 198
3 380 198 295
3 381 295 63
3 382 296 203
3 382 113 296
3 382 203 302
3 382 302 204
3 382 204 113
3 383 303 301
3 383 63 303
3 384 304 230
3 384 142 304
3 385 306 65
3 385 65 119
3 385 119 306
3 386 307 153
3 387 208 307
3 387 386 246
3 387 307 386
3 388 211 309
3 388 309 344
3 388 344 332
3 388 332 81
3 390 290 58
3 390 58 196
3 390 196 310
3 391 311 190
3 391 190 285
3 392 318 228
3 392 228 77
3 392 77 142
3 392 142 384
3 392 384 230
3 393 138 228
3 393 322 138
3 393 41 322
3 394 230 321
3 394 333 230
3 394 81 333
3 395 321 230
3 395 230 304
3 396 207 11
3 396 11 321
3 396 321 395
3 396 395 304
3 396 304 207
3 397 315 143
3 397 143 323
3 397 343 20
3 397 20 315
3 397 323 231
3 397 231 343
3 399 235 145
3 400 399 145
3 401 328 238
3 401 238 147
3 402 79 234
3 402 234 6
3 402 6 238
3 402 238 328
3 403 236 79
3 403 402 328
3 403 79 402
3 403 400 145
3 403 145 236
3 403 327 400
3 403 328 401
3 404 329 65
3 404 65 306
3 404 387 246
3 404 306 208
3 404 208 387
3 405 335 284
3 405 244 335
3 407 336 153
3 407 153 337
3 407 337 406
3 407 245 336
3 408 312 70
3 408 307 312
3 408 337 153
3 408 153 307
3 409 70 244
3 409 244 337
3 409 408 70
3 409 337 408
3 410 33 338
3 410 358 245
3 410 338 358
3 410 406 33
3 410 407 406
3 410 245 407
3 411 189 338
3 411 338 33
3 411 372 189
3 411 284 372
3 411 405 284
3 411 33 405
3 412 345 162
3 412 90 345
3 413 162 345
3 413 347 255
3 413 345 256
3 413 256 347
3 414 346 256
3 414 168 346
3 414 361 168
3 414 256 361
3 415 162 348
3 418 255 352
3 418 413 255
3 418 162 413
3 419 352 260
3 419 260 89
3 419 348 162
3 419 418 352
3 419 162 418
3 420 353 82
3 420 261 353
3 421 353 261
3 421 90 412
3 422 336 245
3 422 245 354
3 423 356 116
3 423 1 356
3 423 371 360
3 423 360 1
3 423 116 300
3 424 356 263
3 424 63 383
3 424 383 301
3 424 301 356
3 425 261 357
3 425 355 90
3 425 421 261
3 425 90 421
3 425 357 262
3 425 262 355
3 426 167 357
3 426 357 261
3 426 420 354
3 426 261 420
3 427 358 263
3 427 263 359
3 427 359 262
3 427 262 167
3 428 354 245
3 428 245 358
3 428 427 167
3 428 358 427
3 428 426 354
3 428 167 426
3 429 263 358
3 429 381 63
3 429 424 263
3 429 63 424
3 430 363 280
3 430 280 185
3 430 185 363
3 431 189 372
3 431 378 293
3 431 372 106
3 432 285 219
3 432 219 374
3 432 391 285
3 432 311 391
3 433 376 17
3 433 110 376
3 433 17 380
3 433 379 110
3 433 380 293
3 433 293 379
3 434 310 196
3 434 196 378
3 434 431 106
3 434 378 431
3 434 389 310
3 434 106 389
3 435 380 295
3 435 381 189
3 435 295 381
3 435 293 380
3 436 338 189
3 436 381 429
3 436 429 358
3 436 358 338
3 437 386 153
3 437 153 336
3 438 321 211
3 438 211 388
3 438 388 81
3 438 394 321
3 438 81 394
3 439 389 212
3 439 310 389
3 439 390 310
3 439 212 124
3 439 124 290
3 439 290 390
3 440 212 389
3 440 389 106
3 440 106 311
3 441 392 230
3 441 230 333
3 442 393 228
3 442 318 392
3 442 228 318
3 442 41 393
3 442 392 441
3 442 441 333
3 443 326 235
3 443 235 399
3 443 89 326
3 445 327 403
3 445 400 327
3 445 444 400
3 445 403 401
3 445 401 147
3 446 404 147
3 446 147 329
3 446 329 404
3 447 337 244
3 447 244 405
3 447 405 33
3 447 406 337
3 447 33 406
3 448 412 162
3 448 162 415
3 448 421 412
3 448 415 421
3 449 257 415
3 450 416 349
3 450 82 416
3 450 417 82
3 450 349 417
3 451 353 257
3 451 257 416
3 451 416 82
3 451 82 353
3 452 416 398
3 452 398 399
3 452 444 416
3 452 399 400
3 452 400 444
3 453 82 417
3 453 336 422
3 453 420 82
3 453 422 354
3 453 354 420
3 454 415 348
3 454 348 419
3 454 449 415
3 454 419 89
3 454 89 449
3 455 421 415
3 455 415 257
3 455 257 353
3 455 353 421
3 456 423 300
3 456 300 363
3 456 363 371
3 456 371 423
3 457 432 374
3 457 374 212
3 457 212 440
3 457 440 311
3 457 311 432
3 458 431 293
3 458 293 435
3 458 435 189
3 458 189 431
3 459 436 189
3 459 189 381
3 459 381 436
3 460 437 336
3 460 453 417
3 460 336 453
3 461 246 386
3 461 386 437
3 461 437 460
3 461 460 417
3 461 417 246
3 462 442 333
3 462 333 41
3 462 41 442
3 463 443 399
3 463 399 398
3 463 89 443
3 463 449 89
3 464 349 416
3 464 416 444
3 464 445 349
3 464 444 445
3 465 417 349
3 465 349 445
3 465 246 417
3 465 404 246
3 465 445 147
3 465 147 404
3 466 416 257
3 466 257 449
3 466 398 416
3 466 463 398
3 466 449 463