ply
format ascii 1.0
comment https://github.com/mikedh/trimesh
element vertex 8
property float x
property float y
property float z
property uchar red
property uchar green
property uchar blue
property uchar alpha
element face 12
property list uchar int vertex_indices
end_header
-1.50000000 -1.50000000 1.50000000 192 192 192 255
-1.50000000 1.50000000 1.50000000 192 192 192 255
1.50000000 1.50000000 1.50000000 192 192 192 255
1.50000000 -1.50000000 1.50000000 192 192 192 255
-1.50000000 -1.50000000 -1.50000000 192 192 192 255
-1.50000000 1.50000000 -1.50000000 192 192 192 255
1.50000000 1.50000000 -1.50000000 192 192 192 255
1.50000000 -1.50000000 -1.50000000 192 192 192 255
3 1 2 3
3 3 0 1
3 3 2 6
3 6 7 3
3 7 6 5
3 5 4 7
3 5 1 0
3 0 4 5
3 5 6 2
3 2 1 5
3 4 7 3
3 3 0 4