ply
format ascii 1.0
comment https://github.com/mikedh/trimesh
element vertex 188
property float x
property float y
property float z
element face 372
property list uchar int vertex_indices
end_header
0.36869401 -0.45084199 0.45106900
0.28307301 -0.44039801 0.44658899
0.15290400 -0.46123800 0.17673200
0.40266299 -0.35775000 0.19181600
0.35364899 -0.41001999 0.67184502
0.07692100 -0.49264801 0.69877201
0.43424600 -0.29961300 -0.14800601
0.09163600 -0.32217100 -0.07254100
0.10479600 -0.21476500 -0.25989199
0.33635601 -0.02413700 -0.10259200
0.34924701 0.00890500 -0.05334000
0.16502300 0.07730800 -0.15580700
0.40143001 -0.36819899 0.96986300
0.31162500 -0.23305500 0.92602497
0.14700100 -0.21355100 1.01337695
0.05510100 -0.37327501 0.96696800
0.42424899 -0.19276300 0.19293700
0.39031601 -0.24960300 0.46413901
0.37557101 -0.04501900 0.46450201
0.42801699 -0.04726000 0.20229299
0.36274201 -0.24725001 0.69973099
0.32955301 -0.05891700 0.92256600
0.39458701 -0.05492000 0.71252400
0.28704399 0.23150100 0.15487900
0.20751500 0.32923201 0.09262900
0.18330400 0.35002899 0.32855201
0.28270200 0.18585800 0.29040000
0.28673699 0.10234500 0.48407900
0.15493800 0.20313600 0.50516099
0.24178700 0.08452600 0.89055902
0.26936299 0.13109601 0.72102100
0.15056600 0.22984099 0.74466199
0.14428601 0.12917000 0.93906099
0.19586900 0.19166800 -0.22974800
0.15995300 0.33078501 -0.00528800
0.41422400 0.28444999 -0.44084400
0.29470000 0.49556801 0.04607500
0.23708200 0.07877800 -0.45983699
0.36280200 0.18359900 -0.66104698
0.29203799 0.37002900 -0.73103398
0.30629301 0.50074297 -0.57189298
0.44529700 -0.79708099 -0.17996401
0.39100400 -0.79708099 0.25870901
0.06089900 -0.79708099 0.21864700
0.05990200 -0.79708099 -0.18761800
0.37161100 -0.79708099 1.01512301
0.04164600 -0.79708099 1.01956797
0.07646900 -0.79708099 0.66216302
0.33937600 -0.79708099 0.63724601
0.26606801 0.68020701 -0.42442000
0.28120399 0.56374401 -0.04881700
0.09615000 0.72156000 -0.24570601
0.39549100 0.53605002 -0.27305901
0.60942501 0.72383201 -0.00438300
0.36212000 0.75396401 -0.44736499
0.61526501 0.86631399 -0.24489699
0.00000000 0.35159299 0.15728299
0.00000000 0.32214400 0.33118200
0.00000000 0.23296501 0.51337898
0.00000000 0.26377800 0.75665802
0.00000000 0.15149100 0.96148098
0.00000000 -0.47658801 0.01024400
0.00000000 -0.40986899 -0.06240900
0.00000000 -0.36303401 0.95597601
0.00000000 -0.45761099 0.76175898
0.00000000 0.35064200 0.00849500
0.00000000 0.51177001 0.13273899
0.00000000 0.49103501 -0.58986700
0.00000000 0.87411499 -0.48985499
0.22241300 0.81776500 -0.46409899
0.00000000 0.36671099 -0.73093200
0.00000000 -0.20119400 1.03564000
0.00000000 -0.22979499 -0.21454901
0.00000000 0.08426200 -0.28979599
0.00000000 0.12034900 -0.33761299
0.00000000 0.08154700 -0.47036400
0.00000000 0.17392001 -0.67225802
0.00000000 0.83542901 0.01589600
0.29097900 0.97196299 -0.24495600
0.24779101 1.00063396 -0.37757400
0.14979100 1.03322697 -0.29857400
0.16138101 1.02830303 -0.21017399
0.22071500 0.79611200 -0.25834799
0.17798100 0.83626300 -0.38868701
0.17899300 0.83350998 -0.38442200
0.22173700 0.80369502 -0.25145501
0.09270600 0.86230302 -0.21645400
0.08945400 0.86415899 -0.21581700
0.20970500 0.79350102 -0.18836300
0.07511200 0.86394697 -0.30448699
0.08099700 0.86734998 -0.30509201
0.22327600 0.80585599 -0.25049999
0.00000000 0.86537099 -0.19432200
0.00000000 0.89478898 -0.31982800
0.11869900 -0.49382699 0.64281100
0.28529501 -0.52351803 0.44065899
0.00000000 -0.49840200 0.66469699
0.11036700 -0.46379000 0.22032900
0.00000000 -0.46312901 0.19801700
0.00000000 -0.63024300 0.43751499
0.16424400 -0.03768000 1.01413596
0.12151500 -0.02184600 1.01467395
0.12169300 -0.05165100 1.02098203
0.00000000 -0.00785200 1.04579198
0.00000000 -0.03744900 1.05162704
0.05336900 -0.05779200 1.09646201
0.05347900 -0.10174000 1.05208898
0.00000000 -0.08331600 1.13164794
0.00000000 -0.12653001 1.08701205
-0.36869401 -0.45084199 0.45106900
-0.40266299 -0.35775000 0.19181600
-0.15290400 -0.46123800 0.17673200
-0.28307301 -0.44039801 0.44658899
-0.07692100 -0.49264801 0.69877201
-0.35364899 -0.41001999 0.67184502
-0.43424600 -0.29961300 -0.14800601
-0.33635601 -0.02413700 -0.10259200
-0.10479600 -0.21476500 -0.25989199
-0.09163600 -0.32217100 -0.07254100
-0.34924701 0.00890500 -0.05334000
-0.16502300 0.07730800 -0.15580700
-0.40143001 -0.36819899 0.96986300
-0.05510100 -0.37327501 0.96696800
-0.14700100 -0.21355100 1.01337695
-0.31162500 -0.23305500 0.92602497
-0.42424899 -0.19276300 0.19293700
-0.39031601 -0.24960300 0.46413901
-0.37557101 -0.04501900 0.46450201
-0.42801699 -0.04726000 0.20229299
-0.36274201 -0.24725001 0.69973099
-0.32955301 -0.05891700 0.92256600
-0.39458701 -0.05492000 0.71252400
-0.28704399 0.23150100 0.15487900
-0.28270200 0.18585800 0.29040000
-0.18330400 0.35002899 0.32855201
-0.20751500 0.32923201 0.09262900
-0.28673699 0.10234500 0.48407900
-0.15493800 0.20313600 0.50516099
-0.24178700 0.08452600 0.89055902
-0.14428601 0.12917000 0.93906099
-0.15056600 0.22984099 0.74466199
-0.26936299 0.13109601 0.72102100
-0.15995300 0.33078501 -0.00528800
-0.19586900 0.19166800 -0.22974800
-0.29470000 0.49556801 0.04607500
-0.41422400 0.28444999 -0.44084400
-0.36280200 0.18359900 -0.66104698
-0.23708200 0.07877800 -0.45983699
-0.30629301 0.50074297 -0.57189298
-0.29203799 0.37002900 -0.73103398
-0.44529700 -0.79708099 -0.17996401
-0.05990200 -0.79708099 -0.18761800
-0.06089900 -0.79708099 0.21864700
-0.39100400 -0.79708099 0.25870901
-0.37161100 -0.79708099 1.01512301
-0.33937600 -0.79708099 0.63724601
-0.07646900 -0.79708099 0.66216302
-0.04164600 -0.79708099 1.01956797
-0.28120399 0.56374401 -0.04881700
-0.26606801 0.68020701 -0.42442000
-0.09615000 0.72156000 -0.24570601
-0.60942501 0.72383201 -0.00438300
-0.39549100 0.53605002 -0.27305901
-0.36212000 0.75396401 -0.44736499
-0.61526501 0.86631399 -0.24489699
-0.22241300 0.81776500 -0.46409899
-0.29097900 0.97196299 -0.24495600
-0.16138101 1.02830303 -0.21017399
-0.14979100 1.03322697 -0.29857400
-0.24779101 1.00063396 -0.37757400
-0.22071500 0.79611200 -0.25834799
-0.22173700 0.80369502 -0.25145501
-0.17899300 0.83350998 -0.38442200
-0.17798100 0.83626300 -0.38868701
-0.20970500 0.79350102 -0.18836300
-0.08945400 0.86415899 -0.21581700
-0.09270600 0.86230302 -0.21645400
-0.08099700 0.86734998 -0.30509201
-0.07511200 0.86394697 -0.30448699
-0.22327600 0.80585599 -0.25049999
-0.28529501 -0.52351803 0.44065899
-0.11869900 -0.49382699 0.64281100
-0.11036700 -0.46379000 0.22032900
-0.16424400 -0.03768000 1.01413596
-0.12169300 -0.05165100 1.02098203
-0.12151500 -0.02184600 1.01467395
-0.05347900 -0.10174000 1.05208898
-0.05336900 -0.05779200 1.09646201
3 0 1 2
3 0 2 3
3 0 4 5
3 0 5 1
3 6 7 8
3 6 8 9
3 10 9 8
3 10 8 11
3 12 13 14
3 12 14 15
3 6 9 16
3 6 16 3
3 0 3 16
3 0 16 17
3 18 17 16
3 18 16 19
3 10 19 16
3 10 16 9
3 12 4 20
3 12 20 13
3 21 13 20
3 21 20 22
3 18 22 20
3 18 20 17
3 0 17 20
3 0 20 4
3 23 24 25
3 23 25 26
3 27 26 25
3 27 25 28
3 29 30 31
3 29 31 32
3 27 28 31
3 27 31 30
3 18 19 26
3 18 26 27
3 22 30 29
3 22 29 21
3 11 24 23
3 11 23 10
3 30 22 18
3 30 18 27
3 19 10 23
3 19 23 26
3 11 33 34
3 11 34 24
3 33 35 36
3 33 36 34
3 33 37 38
3 33 38 35
3 35 38 39
3 35 39 40
3 41 42 43
3 41 43 44
3 45 46 47
3 45 47 48
3 4 12 45
3 4 45 48
3 15 5 47
3 15 47 46
3 4 48 47
3 4 47 5
3 15 46 45
3 15 45 12
3 3 42 41
3 3 41 6
3 7 6 41
3 7 41 44
3 2 43 42
3 2 42 3
3 7 44 43
3 7 43 2
3 40 49 50
3 40 50 36
3 40 36 35
3 51 50 52
3 51 52 53
3 50 49 54
3 50 54 52
3 54 55 53
3 54 53 52
3 56 57 25
3 56 25 24
3 58 59 31
3 58 31 28
3 59 60 32
3 59 32 31
3 61 62 7
3 61 7 2
3 63 64 5
3 63 5 15
3 57 58 28
3 57 28 25
3 65 56 24
3 65 24 34
3 66 65 34
3 66 34 36
3 67 68 69
3 67 69 40
3 70 67 40
3 70 40 39
3 71 63 15
3 71 15 14
3 62 72 8
3 62 8 7
3 72 73 11
3 72 11 8
3 73 74 33
3 73 33 11
3 74 75 37
3 74 37 33
3 75 76 38
3 75 38 37
3 76 70 39
3 76 39 38
3 66 36 50
3 66 50 51
3 66 51 77
3 40 69 49
3 78 79 80
3 78 80 81
3 82 83 84
3 82 84 85
3 85 86 87
3 85 87 88
3 83 89 90
3 83 90 84
3 89 87 86
3 89 86 90
3 82 85 88
3 82 88 91
3 82 91 55
3 82 55 54
3 82 54 49
3 88 51 53
3 88 53 55
3 88 55 91
3 87 92 77
3 87 77 51
3 87 51 88
3 93 89 83
3 93 83 69
3 93 69 68
3 92 87 89
3 92 89 93
3 69 83 82
3 69 82 49
3 84 79 78
3 84 78 85
3 90 80 79
3 90 79 84
3 86 81 80
3 86 80 90
3 85 78 81
3 85 81 86
3 1 5 94
3 1 94 95
3 5 64 96
3 5 96 94
3 61 2 97
3 61 97 98
3 2 1 95
3 2 95 97
3 96 99 95
3 96 95 94
3 99 98 97
3 99 97 95
3 100 101 102
3 100 102 14
3 100 14 13
3 100 13 21
3 100 21 29
3 100 29 32
3 100 32 101
3 103 101 32
3 103 32 60
3 71 14 102
3 71 102 104
3 102 101 105
3 102 105 106
3 101 103 107
3 101 107 105
3 104 102 106
3 104 106 108
3 105 107 108
3 105 108 106
3 109 110 111
3 109 111 112
3 109 112 113
3 109 113 114
3 115 116 117
3 115 117 118
3 119 120 117
3 119 117 116
3 121 122 123
3 121 123 124
3 115 110 125
3 115 125 116
3 109 126 125
3 109 125 110
3 127 128 125
3 127 125 126
3 119 116 125
3 119 125 128
3 121 124 129
3 121 129 114
3 130 131 129
3 130 129 124
3 127 126 129
3 127 129 131
3 109 114 129
3 109 129 126
3 132 133 134
3 132 134 135
3 136 137 134
3 136 134 133
3 138 139 140
3 138 140 141
3 136 141 140
3 136 140 137
3 127 136 133
3 127 133 128
3 131 130 138
3 131 138 141
3 120 119 132
3 120 132 135
3 141 136 127
3 141 127 131
3 128 133 132
3 128 132 119
3 120 135 142
3 120 142 143
3 143 142 144
3 143 144 145
3 143 145 146
3 143 146 147
3 145 148 149
3 145 149 146
3 150 151 152
3 150 152 153
3 154 155 156
3 154 156 157
3 114 155 154
3 114 154 121
3 122 157 156
3 122 156 113
3 114 113 156
3 114 156 155
3 122 121 154
3 122 154 157
3 110 115 150
3 110 150 153
3 118 151 150
3 118 150 115
3 111 110 153
3 111 153 152
3 118 111 152
3 118 152 151
3 148 145 144
3 148 144 158
3 148 158 159
3 160 161 162
3 160 162 158
3 158 162 163
3 158 163 159
3 163 162 161
3 163 161 164
3 56 135 134
3 56 134 57
3 58 137 140
3 58 140 59
3 59 140 139
3 59 139 60
3 61 111 118
3 61 118 62
3 63 122 113
3 63 113 64
3 57 134 137
3 57 137 58
3 65 142 135
3 65 135 56
3 66 144 142
3 66 142 65
3 67 148 165
3 67 165 68
3 70 149 148
3 70 148 67
3 71 123 122
3 71 122 63
3 62 118 117
3 62 117 72
3 72 117 120
3 72 120 73
3 73 120 143
3 73 143 74
3 74 143 147
3 74 147 75
3 75 147 146
3 75 146 76
3 76 146 149
3 76 149 70
3 66 77 160
3 66 160 158
3 66 158 144
3 148 159 165
3 166 167 168
3 166 168 169
3 170 171 172
3 170 172 173
3 171 174 175
3 171 175 176
3 173 172 177
3 173 177 178
3 178 177 176
3 178 176 175
3 170 179 174
3 170 174 171
3 170 159 163
3 170 163 164
3 170 164 179
3 174 179 164
3 174 164 161
3 174 161 160
3 175 174 160
3 175 160 77
3 175 77 92
3 93 68 165
3 93 165 173
3 93 173 178
3 92 93 178
3 92 178 175
3 165 159 170
3 165 170 173
3 172 171 166
3 172 166 169
3 177 172 169
3 177 169 168
3 176 177 168
3 176 168 167
3 171 176 167
3 171 167 166
3 112 180 181
3 112 181 113
3 113 181 96
3 113 96 64
3 61 98 182
3 61 182 111
3 111 182 180
3 111 180 112
3 96 181 180
3 96 180 99
3 99 180 182
3 99 182 98
3 183 184 185
3 183 130 124
3 183 124 123
3 183 123 184
3 183 185 139
3 183 139 138
3 183 138 130
3 103 60 139
3 103 139 185
3 71 104 184
3 71 184 123
3 184 186 187
3 184 187 185
3 185 187 107
3 185 107 103
3 104 108 186
3 104 186 184
3 187 186 108
3 187 108 107